<svg xmlns="http://www.w3.org/2000/svg" viewBox="0 0 116 40"><defs><style>.cls-1{fill:#ffcb00;width:115px;height:40px;}</style></defs><title>资源 1</title><g id="图层_2" data-name="图层 2"><g id="图层_1-2" data-name="图层 1"><path d="M115.43,1.71H81.14a.57.57,0,0,0-.57.57V3.5a2.86,2.86,0,0,0,2.86,2.86h32a.57.57,0,0,0,.57-.57V2.29a.57.57,0,0,0-.57-.57"/><path d="M74.29,1.71H60.46V.57A.57.57,0,0,0,59.89,0h-5.5a.57.57,0,0,0-.57.57V1.71H40a.57.57,0,0,0-.57.57v.57a2.86,2.86,0,0,0,2.86,2.86H53.82V7.5H41.43a.57.57,0,0,0-.57.57v2.86a.57.57,0,0,0,.57.57H72.86a.57.57,0,0,0,.57-.57V8.07a.57.57,0,0,0-.57-.57H60.46V5.71H74.29a.57.57,0,0,0,.57-.57V2.29a.57.57,0,0,0-.57-.57"/><path d="M115.43,35.36H81.14a.57.57,0,0,0-.57.57v1.21A2.86,2.86,0,0,0,83.43,40h32a.57.57,0,0,0,.57-.57v-3.5a.57.57,0,0,0-.57-.57"/><path d="M114.57,23.5V9.21a.57.57,0,0,0-.57-.57H82.57a.57.57,0,0,0-.57.57v12h0a2.86,2.86,0,0,0,2.86,2.85H114a.57.57,0,0,0,.57-.57m-6.43-4.71a.57.57,0,0,1-.57.57H89a.57.57,0,0,1-.57-.57V13.93a.57.57,0,0,1,.57-.57h18.57a.57.57,0,0,1,.57.57Z"/><path d="M84.86,29.71a4,4,0,1,0,4-4,4,4,0,0,0-4,4"/><path d="M103.71,29.71a4,4,0,1,0,4-4,4,4,0,0,0-4,4"/><path d="M41.43,24.57a.57.57,0,0,0-.57.57V28a.57.57,0,0,0,.57.57H72.86a.57.57,0,0,0,.57-.57V25.14a.57.57,0,0,0-.57-.57H70V22.86h2.86a.57.57,0,0,0,.57-.57V13.71a.57.57,0,0,0-.57-.57H41.43a.57.57,0,0,0-.57.57V20a2.86,2.86,0,0,0,2.86,2.86h.57v1.71Zm5.86-6.86a.57.57,0,0,1,.57-.57H66.43a.57.57,0,0,1,.57.57v.57a.57.57,0,0,1-.57.57H47.86a.57.57,0,0,1-.57-.57Zm3.57,5.14H63.43v1.71H50.86Z"/><path d="M72.86,30.21H41.43a.57.57,0,0,0-.57.57v6.35h0A2.86,2.86,0,0,0,43.71,40H72.86a.57.57,0,0,0,.57-.57V30.79a.57.57,0,0,0-.57-.57M67,35.39a.57.57,0,0,1-.57.57H47.86a.57.57,0,0,1-.57-.57v-.57a.57.57,0,0,1,.57-.57H66.43a.57.57,0,0,1,.57.57Z"/><path class="cls-1" d="M33.71,16.86A16.86,16.86,0,1,0,14.29,33.52v4.77h-2a.29.29,0,0,0-.29.29v.29A1.14,1.14,0,0,0,13.14,40h2.57a.29.29,0,0,0,.29-.29v-6l.86,0A17,17,0,0,0,20,33.42v4.86H18a.29.29,0,0,0-.29.29v.29A1.14,1.14,0,0,0,18.86,40h2.57a.29.29,0,0,0,.29-.29V33a16.86,16.86,0,0,0,12-16.15"/><path d="M8.17,9.79a1.14,1.14,0,1,1,1.62,0,1.14,1.14,0,0,1-1.62,0"/><path d="M11.6,9.79a1.14,1.14,0,1,1,1.62,0,1.14,1.14,0,0,1-1.62,0"/></g></g></svg>